# xmcd
#
# Track frame offsets: 
#        150
#        18353
#        37015
#        48235
#        64569
#        92051
#        107621
#        127006
#        141766
#        177252
#
# Disc length: 3526 seconds
#
# Revision: 3
# Processed by: cddbd v1.5.2PL0 Copyright (c) Steve Scherf et al.
# Submitted via: ExactAudioCopy v1.1
#
DISCID=820dc40a
DTITLE=Albert King - Blues For Elvis
DYEAR=1972
DGENRE=Blues
TTITLE0=Hound Dog
TTITLE1=That's All Right
TTITLE2=All Shook Up
TTITLE3=Jailhouse Rock
TTITLE4=Heartbreak Hotel
TTITLE5=Don't Be Cruel
TTITLE6=One Night
TTITLE7=Blue Suede Shoes
TTITLE8=Love Me Tender
TTITLE9=Multimedia-Track
EXTD=© 2001\nLabel: Stax Records (Fantasy Inc.]\nSCD24 8504-2\n24 BIT 
EXTD=Remastered
EXTT0=
EXTT1=
EXTT2=
EXTT3=
EXTT4=
EXTT5=
EXTT6=
EXTT7=
EXTT8=
EXTT9=
PLAYORDER=
